<?xml version="1.0" encoding="utf-8"?>
<!-- Generator: Adobe Illustrator 28.1.0, SVG Export Plug-In . SVG Version: 6.00 Build 0)  -->
<svg version="1.1" id="레이어_1" xmlns="http://www.w3.org/2000/svg" xmlns:xlink="http://www.w3.org/1999/xlink" x="0px"
	 y="0px" viewBox="0 0 136 136" style="enable-background:new 0 0 136 136;" xml:space="preserve">
<style type="text/css">
	.st0{fill:#C8AA6E;}
	.st1{fill:#9668C8;}
</style>
<g>
	<path class="st0" d="M72.1,57.9C78.7,41.1,90,26.9,99.9,12.1C93,29.5,84.3,46.9,84,66c-0.7,4.8-2.8,9.3-4,14
		C78,72.4,75.1,65.1,72.1,57.9z M36.2,12.4C49.3,32.5,62.9,53,69.8,76.2c4.8,15.5,5.4,32.9-1.8,47.8c-5.6-6.1-11.1-12.3-16.7-18.3
		C46.3,101,41,96.6,36,92c-1.5-11.7-3-23.9-8.7-34.4c-2.8-5.2-6.7-9.7-11.2-13.5c9.7,4.8,19.2,10.4,26.2,18.7
		c4.4,5,7.5,10.9,9.7,17.2c1.2-10.3,0.6-20.8-2-30.8C46.6,36.4,41,24.5,36.2,12.4L36.2,12.4z M105.8,53.8c4.1-4,9-7.2,14-9.8
		c-4.4,3.9-8.4,8.3-11.1,13.5C103,68.1,101.6,80.2,100,92c-5.3,5.3-10.7,10.7-16,16c0.2-4.4-0.2-8.8,1-13.1
		C88.4,79.8,94.5,64.7,105.8,53.8z"/>
</g>
<path class="st1" d="M60.4,115.5c-8.7-9.6-9.4-10.3-14.2-14.5c-4.2-3.8-9-8-9.7-8.6c-0.4-0.3-0.5-0.6-0.6-1.5
	c-0.1-0.6-0.4-3-0.8-5.4c-1.7-12.3-3.7-19.8-7.2-26.7c-2.2-4.4-4.5-7.6-8.2-11.4c-1.4-1.4-2.5-2.6-2.4-2.6c0.4,0,6,3.1,9.1,5
	c6.6,4,12,8.6,16.3,13.7c3.2,3.8,6.2,8.9,8.2,14.2c0.4,1.1,0.9,2.1,0.9,2.2c0.1,0.1,0.2-0.9,0.5-4.9c0.2-3.4,0.1-10.2-0.3-13.6
	c-1.2-11.1-3.6-19-12.1-39.6c-1.7-4.2-3.1-7.7-3.1-7.8c0-0.1,4.8,7.2,9,13.8C57.2,45.6,64,59.1,68.4,72c3.7,11.1,5.1,19,4.9,28.6
	c-0.2,8.1-1.4,14.3-4.4,21.2c-0.4,1-0.8,1.9-0.9,1.9S64.5,120,60.4,115.5z M79.1,76.6c-1.2-4-2.7-8.3-5-14l-1.9-4.8l0.5-1.4
	c1-2.6,3.3-7.2,5-10.4C81,40.2,84.3,35,90.3,26.3c2-3,4.9-7.1,6.3-9.2c1.4-2.1,2.6-3.7,2.6-3.6s-1.1,2.9-2.5,6.2
	c-5.1,12.4-7.5,18.8-9.3,25c-2,7.1-3.1,12.8-3.4,19.2c-0.2,3.3-0.5,4.8-2.6,11.1c-0.7,2.1-1.2,4-1.2,4.1c0,0.1-0.1,0.3-0.1,0.3
	C80,79.4,79.6,78.2,79.1,76.6L79.1,76.6z M84.1,106.8c0-0.5,0.1-2.6,0.1-4.7c0.1-3.9,0.1-4.3,1.2-8.6c2-8.4,4.2-14.7,7.3-21
	c5-10.4,11.3-18,19.6-23.9c1.6-1.1,6.1-3.9,6.4-3.9c0.1,0-0.9,1.1-2.3,2.5c-3.7,3.7-5.9,6.7-8,10.8c-3.9,7.5-5.9,14.8-7.8,29.2
	l-0.6,4.7L92,99.9l-7.9,7.9L84.1,106.8z"/>
</svg>
