<?xml version="1.0" encoding="utf-8"?>
<!-- Generator: Adobe Illustrator 28.1.0, SVG Export Plug-In . SVG Version: 6.00 Build 0)  -->
<svg version="1.1" id="레이어_1" xmlns="http://www.w3.org/2000/svg" xmlns:xlink="http://www.w3.org/1999/xlink" x="0px"
	 y="0px" viewBox="0 0 136 136" style="enable-background:new 0 0 136 136;" xml:space="preserve">
<style type="text/css">
	.st0{fill:#624C27;}
	.st1{fill:#C8AA6E;}
	.st2{fill:#3D2462;}
	.st3{fill:#9668C8;}
</style>
<path class="st0" d="M16,16c22.7,0,45.3,0,68,0c-5.4,5.3-10.7,10.7-16.1,16c-12,0-23.9,0-35.9,0c0,12,0,24,0,36
	c-5.3,5.3-10.6,10.6-16,15.9C16,61.3,16,38.6,16,16z M103.9,67.9c5.3-5.4,10.7-10.7,16-16c0,22.7,0,45.4,0,68.1c-22.7,0-45.3,0-68,0
	c5.3-5.3,10.7-10.7,16-16c12,0,24,0,36,0C104,92,103.9,79.9,103.9,67.9z"/>
<path class="st1" d="M100,16h20v20c-28,28-56,56-84,84H16v-20C44,72,72,44,100,16z"/>
<path class="st2" d="M16.1,49.9V16h67.8l-8,7.9l-8,7.9l-18,0l-18,0l0,18.1l0,18.1L24,75.8l-7.9,7.8L16.1,49.9z M60.1,112l7.9-7.9
	H104V68.1l3.2-3.3c1.8-1.8,5.3-5.4,7.9-7.9l4.7-4.6V120H52.2L60.1,112z"/>
<path class="st3" d="M16.1,110v-10l42-42l42-42h19.7v19.9l-42,42l-42,42H16.1L16.1,110z"/>
</svg>
