<?xml version="1.0" encoding="utf-8"?>
<!-- Generator: Adobe Illustrator 28.1.0, SVG Export Plug-In . SVG Version: 6.00 Build 0)  -->
<svg version="1.1" id="레이어_1" xmlns="http://www.w3.org/2000/svg" xmlns:xlink="http://www.w3.org/1999/xlink" x="0px"
	 y="0px" viewBox="0 0 136 136" style="enable-background:new 0 0 136 136;" xml:space="preserve">
<style type="text/css">
	.st0{fill:#C8AA6E;}
	.st1{fill:#A0A0A0;}
	.st2{fill:#9668C8;}
</style>
<g>
	<path class="st0" d="M52.2,12c10.3-0.1,20.7,0.1,31-0.1c1.7,2.6,3.2,5.4,4.8,8.1c-6.7,8-13.3,16-20,24c-6.7-8-13.3-16-20-24
		C49.4,17.3,50.8,14.7,52.2,12z M0,36.3c14.6-0.7,29.3-0.1,44-0.3c4,4,8,8,12,12c-2.7,9.3-5.3,18.7-8,28c-6.7-2.7-13.3-5.3-20-8
		c4-5.3,8-10.6,12-16c-5-0.1-10.1,0.4-15-1.1C15.6,48.1,7.8,42,0,36.3L0,36.3z M92,36c14.7,0,29.3-0.1,44,0.1v0
		c-7.3,5.9-15.1,11.5-24.1,14.5c-5.1,1.8-10.6,1.3-15.9,1.4c4,5.3,8,10.6,12,16c-6.6,2.7-13.3,5.3-20,8c-2.7-9.3-5.3-18.7-8-28
		C84,44,88,40,92,36z M64,52.1c1.4,1.3,2.7,2.5,4,3.9c1.3-1.3,2.7-2.7,4-4c4,20,8,40,12,59.9c-5.3,4.1-10.7,8.1-16,12
		c-5.3-4-10.7-8-16-12C56,92,59.9,72,64,52.1z"/>
</g>
<path class="st1" d="M38,71.9c-5.4-2.1-9.8-3.9-9.8-3.9c0,0,2.6-3.6,5.9-8c3.3-4.4,6-8,6-8c0,0-2.5-0.1-5.5-0.1
	c-6.1-0.1-6.9-0.2-10.5-1.4c-6.3-2-11.9-5.3-21.7-12.5l-2.1-1.6l1.7-0.1c0.9-0.1,10.8-0.1,21.9-0.2l20.2,0l6,6l6,6l-4,13.9
	c-2.2,7.7-4,13.9-4.1,13.9C47.8,75.8,43.4,74.1,38,71.9L38,71.9z M58.1,32c-5.4-6.5-9.9-11.9-9.9-11.9c0-0.1,0.9-1.9,2-4l2.1-3.9
	l15.4,0l15.4,0l0.9,1.4c0.8,1.3,1.6,2.6,2.3,4c1.3,2.2,1.4,2.6,1.2,2.8C86.3,21.9,68.1,43.7,68,43.7C68,43.8,63.5,38.5,58.1,32z
	 M84.1,61.9l-4-13.9l6-6l6-6l18.5,0c10.2,0,20,0.1,21.8,0.1l3.3,0.1l-1.5,1.2c-8.3,6.6-15.2,10.7-22,13c-3.7,1.2-4.5,1.4-10.8,1.4
	c-3,0-5.4,0.1-5.4,0.1c0,0,2.7,3.6,6,8l6,7.9l-0.7,0.3c-1.1,0.5-18.9,7.6-19,7.6C88.1,75.8,86.3,69.6,84.1,61.9L84.1,61.9z"/>
<path class="st2" d="M60,117.9c-4.3-3.2-7.8-5.9-7.8-6c0-0.1,11-55.4,11.7-58.7l0.2-0.9l0.4,0.4c0.2,0.2,1.1,1,2,1.9l1.5,1.5l2-2
	c1.1-1.1,2-1.9,2-1.9s2.7,13.5,5.9,29.8c3.3,16.3,5.9,29.7,5.9,29.8c0,0.2-15.5,11.8-15.8,11.9C67.9,123.7,64.8,121.5,60,117.9
	L60,117.9z M88.1,75.6c-0.1-0.1-4.5-15.4-7.2-25l-0.7-2.5l6-6l6-6l20.4,0c11.2,0,20.9,0.1,21.6,0.1l1.2,0.1l-1.8,1.4
	c-6.9,5.4-13.2,9.2-18.6,11.4c-2.1,0.9-5,1.8-6.4,2c-1.1,0.2-7.5,0.5-11.7,0.6c-0.5,0-0.9,0.1-0.9,0.1c0,0.1,2.6,3.7,5.9,8
	c3.2,4.3,5.8,7.9,5.7,8c-0.1,0.1-19.1,7.7-19.3,7.7C88.2,75.7,88.1,75.6,88.1,75.6L88.1,75.6z M66.6,41.9C65,40.2,51,23.3,49.3,21.2
	l-1-1.2l0.9-1.7c0.5-0.9,1.4-2.7,2-3.9l1.2-2.2h13.3c7.3,0,14.3,0,15.4-0.1l2.1-0.1l1.4,2.4c1.7,2.8,3.1,5.5,3.1,5.6
	c0,0.1-11.8,14.3-17.4,20.9L68,43.6L66.6,41.9z M38.1,71.9c-5.2-2.1-9.5-3.9-9.6-3.9c-0.1-0.1,2.2-3.2,5-7c6-8.1,6.6-8.9,6.6-9
	c0,0-2.6-0.1-5.8-0.2c-3.7-0.1-6.1-0.3-6.9-0.4c-3.1-0.6-8.5-2.8-12.3-4.9c-4.1-2.3-14.7-9.7-14.4-10c0.1-0.1,7.6-0.2,21.7-0.2
	L44,36.2l5.9,5.9l5.9,5.9L54.7,52c-4.7,16.5-6.8,23.7-7,23.7C47.6,75.7,43.3,74,38.1,71.9L38.1,71.9z"/>
</svg>
