<?xml version="1.0" encoding="utf-8"?>
<!-- Generator: Adobe Illustrator 28.1.0, SVG Export Plug-In . SVG Version: 6.00 Build 0)  -->
<svg version="1.1" id="레이어_1" xmlns="http://www.w3.org/2000/svg" xmlns:xlink="http://www.w3.org/1999/xlink" x="0px"
	 y="0px" viewBox="0 0 136 136" style="enable-background:new 0 0 136 136;" xml:space="preserve">
<style type="text/css">
	.st0{fill:#9668C8;}
	.st1{opacity:0.75;fill:#382159;enable-background:new    ;}
	.st2{fill:#3D2462;}
</style>
<path class="st0" d="M16,16c32.1,0,64.1,0,96.2,0c-6.7,6.7-13.4,13.3-20.2,20H36v56c-6.7,6.7-13.3,13.5-20,20.2
	C16,80.1,16,48.1,16,16z"/>
<g>
	<path class="st1" d="M104,44c5.3-5.3,10.7-10.6,16-15.9c0,30.6,0,61.3,0,91.9c-30.6,0-61.3,0-91.9,0c5.3-5.3,10.7-10.7,16-16
		c20,0,40,0,59.9,0V44z"/>
	<path class="st1" d="M56,56h28v28H56V56z"/>
</g>
<path class="st2" d="M36.2,112l7.9-7.9H104V44l6.8-6.8c3.7-3.7,7.3-7.3,7.9-7.8l1.1-1.1V120H28.3L36.2,112z"/>
<path class="st2" d="M56.1,70V56h27.8v27.9H56.1V70z"/>
</svg>
