<?xml version="1.0" encoding="utf-8"?>
<!-- Generator: Adobe Illustrator 28.1.0, SVG Export Plug-In . SVG Version: 6.00 Build 0)  -->
<svg version="1.1" id="_레이어_1" xmlns="http://www.w3.org/2000/svg" xmlns:xlink="http://www.w3.org/1999/xlink" x="0px"
	 y="0px" viewBox="0 0 500 500" style="enable-background:new 0 0 500 500;" xml:space="preserve">
<style type="text/css">
	.st0{fill:#FFFFFF;}
</style>
<path class="st0" d="M100,253.1c9.1-28.5,8.8-59.1,60.6-116.7C180.9,113.8,204,99,235,83.1c12.3-6.3,16,1.1,15.6,20.2
	c-0.6,37.9-12.1,58.9-21.3,76.9c-6.2,11.4-15.8,18-28.4,20.3l-28.7,8.8c-35,10.7-60.6,39.8-68.6,53.9C99.2,271.2,97.3,264,100,253.1
	L100,253.1L100,253.1z M445.8,117.7c-8.1,39.6-32.9,84.3-47.4,105.6c-26,38.1-38.8,46.5-80,85.5c-1.7,1.4-1,12.8,8.4,20.4l27.2,13.2
	c2.8,2.4,5.3,6.5-0.5,8.7c-23.4,9.1-51.9,7.5-52.6,7.3c-3-0.6-4.9,0.6-4.5,2.8c8.5,8.7,18,16.3,28.5,22.6c8.5,5.1,3.9,9.8-2.9,11.1
	c-32.6,6.2-59.8,2.4-88.9,2.8c-19.6,0.5-35.9,7.4-52.1,14.2c-23.6,8-50.1,21.9-68.3,19.5c-39.3-5-45.7-17.3-56.9-28.1
	c-11.2-10.8-4-18.4,4-25.4c18.7-16.2,23.2-28,25.2-42.7c4-15.2,7.9-37.1,18.7-55.4c8.9-15.1,14.3-23.5,27.7-37.8
	c14.1-15.1,39.8-23.7,61.3-28.2c29-6.1,31.3-14.8,41.8-23.2c21.5-19.7,44.2-40.7,78.2-64.1c16.3-11.9,36.9-25.7,57.1-36.7
	c23.2-12.6,45.8-21.6,57.5-21.6C453.6,71.6,452.9,84.2,445.8,117.7z M175.4,293.5c0-2.1-0.6-3.6-3.2-3.6c-1.3,0-3,0.4-5.4,1.3
	c-16.8,6.4-27.9,12.9-37.9,21c-15,12.2-21.3,22-25.3,31.8c-1.7,4.2-3.4,8.3-4,13.2c2.4-1.6,3-8,14.4-11.1c9.8-2.6,13.2,0.6,30.6-6.4
	c12.3-4.9,24.2-14.6,30-38C174.5,299.2,175.4,296,175.4,293.5L175.4,293.5z M423.2,92.2c-1,0-2.3,0.3-4.2,1
	c-23.5,10.6-59.2,28.1-89.1,51.3c-16.7,13-33.8,26.9-45.7,43l-8,10.9l-9.1,14.3l1.3,1c21.8-29.8,58.2-55.5,100.7-73.1
	c11.4-4.8,10.1,3.9,9.5,7.8c-4.5,27.7-21.3,65.6-46.3,92.1c-13.5,14.2-35.1,30.1-46.7,41.7c-6.8,6.8-8.1,12.3-12.1,18.2
	c-0.8,0.8-1.1,1.6-4.2,2.5c-33.8,8-47.4,16.4-59.6,25.4c-1.3,1.5-0.4,3.8,1.4,4.3c11.2,1.8,21.7,2,37.5,14.2c4.3,3.8,1.6,4,0.2,4.4
	c-17.6,4.8-25,10.9-38.2,20.5c-5.8,4.2-10.3,9.6-15.1,14.7c0.9,0.4,26.9-17.1,43.9-22.5c10.9-3.5,34-7.9,34-7.9
	c-3.4-10-21.5-21.7-39.7-28.5c-4.3-1.2-2.7-3.4,3-5.9c10.4-4.7,29.2-9.5,44.4-6l12.9,3c-2.6-6.3-2.1-11.2-2.5-14.6
	c-1-10.8,33.8-34.2,53-51.6c12.3-12.2,22.8-24,31.6-37.5c12.9-19.8,23.8-40.4,35-65.5c4.5-17,11.8-33.6,13.7-51.4
	C425.3,95.4,426.1,92.3,423.2,92.2L423.2,92.2z"/>
</svg>
