<?xml version="1.0" encoding="utf-8"?>
<!-- Generator: Adobe Illustrator 28.1.0, SVG Export Plug-In . SVG Version: 6.00 Build 0)  -->
<svg version="1.1" id="_레이어_1" xmlns="http://www.w3.org/2000/svg" xmlns:xlink="http://www.w3.org/1999/xlink" x="0px"
	 y="0px" viewBox="0 0 500 500" style="enable-background:new 0 0 500 500;" xml:space="preserve">
<style type="text/css">
	.st0{fill:#FFFFFF;}
</style>
<path class="st0" d="M349.3,235.8l67-176.7L250.2,166L83.4,60.2L150.9,236L50,258.5l200.2,182.4l199.8-182L349.3,235.8z
	 M174.6,248.6l-54.7-144.4l27.6,18.1l53,138.2l-65.8,15L96.2,267L174.6,248.6z M245.8,412.2L94.4,274.5l38.4,8.6L246.1,384
	L245.8,412.2z M246.1,372.6l-21.7-18.7l-0.1-154.3l-54.4-39.3l-11.9-31l88.2,59L246.1,372.6z M379.7,104.7l-54.5,143.7l78.4,18.7
	l-37.6,8.4l-66.3-14.7l52.9-138.4L379.7,104.7z M341.7,129.7l-11.3,30.5l-55.1,39.6l0.3,155L254,373.6V188.3L341.7,129.7z
	 M254,384.1l113.4-101.2l38-8.4L254.3,412.5L254,384.1z"/>
</svg>
