<?xml version="1.0" encoding="utf-8"?>
<!-- Generator: Adobe Illustrator 28.1.0, SVG Export Plug-In . SVG Version: 6.00 Build 0)  -->
<svg version="1.1" id="_레이어_1" xmlns="http://www.w3.org/2000/svg" xmlns:xlink="http://www.w3.org/1999/xlink" x="0px"
	 y="0px" viewBox="0 0 500 500" style="enable-background:new 0 0 500 500;" xml:space="preserve">
<style type="text/css">
	.st0{fill:#FFFFFF;}
</style>
<path class="st0" d="M450,207.3v85.4c-0.1,0.2-0.1,0.5-0.2,0.7c-1.2,8.1-8.2,14.5-16.3,14.8c-3.9,0.2-7.8,0.4-11.7,0.6
	c-13.9,0.7-27.7,1.4-41.6,2.1c-13.1,0.7-26.2,1.3-39.4,2c-9.6,0.5-19.2,1-28.9,1.4c-8.3,0.4-16.7,0.6-25,0.9c-8,0.2-16,0.3-24,0.5
	c-1.5,0-2.4-1-2.2-2.5c0.6-4.2,1.1-8.3,1.7-12.5c0.2-1.6,0.9-2.2,2.5-2.3c10.5-0.7,20.9-1.7,31.3-3.2c2.9-0.4,5.8-0.7,8.6-1.5
	c7-2,11.6-7.9,11.6-14.8c0-19.2,0-38.4,0-57.6c0-1.3-0.1-2.8-0.5-4c-2-6.5-6.6-10.2-13-11.2c-7.7-1.3-15.5-2.1-23.2-3
	c-4.9-0.6-9.8-0.8-14.7-1.2c-1.6-0.1-2.3-0.8-2.5-2.4c-0.6-4.1-1.1-8.3-1.7-12.4c-0.2-1.5,0.6-2.5,2.1-2.5
	c8.6,0.1,17.2,0.2,25.8,0.5c15.7,0.5,31.4,1.2,47,1.9c13.2,0.6,26.3,1.3,39.5,2c11.3,0.6,22.6,1.2,33.9,1.8
	c8.3,0.4,16.5,0.8,24.8,1.3c7.2,0.4,13.2,5.3,15.3,12.2C449.5,205.1,449.7,206.2,450,207.3L450,207.3L450,207.3z M151.5,187.2
	c0,0,0,0.1,0,0.1c-11.2,0.6-22.4,1.1-33.7,1.7c-9.1,0.5-18.3,1-27.4,1.4c-8,0.4-16.1,0.8-24.2,1.3c-9.8,0.5-16.5,9.1-16.2,17.6
	c0.2,6.1,0,12.2,0,18.3c0,21.1,0.1,42.2,0,63.3c0,7.6,5.7,16.5,16,17.3c7,0.5,13.9,0.8,20.9,1.1c11.8,0.6,23.6,1.2,35.4,1.8
	c16.4,0.8,32.8,1.7,49.2,2.5c9.6,0.5,19.2,0.9,28.8,1.2c12.2,0.4,24.4,0.6,36.6,0.9c1.6,0,2.5-0.9,2.3-2.5
	c-0.5-4.3-1.1-8.5-1.7-12.8c-0.2-1.2-0.9-1.9-2.1-2c-0.5-0.1-1.1-0.1-1.7-0.1c-4.7-0.4-9.5-0.7-14.3-1.2c-6.6-0.7-13.1-1.6-19.7-2.5
	c-3.3-0.4-6.5-1.1-9.3-3.1c-4.2-2.9-7-6.8-7-12.1c-0.1-19.6-0.1-39.2,0-58.8c0-1.4,0.2-2.7,0.7-4c2.2-6.2,6.7-9.8,13-10.8
	c8.3-1.3,16.7-2.2,25.1-3.2c4.3-0.5,8.6-0.7,12.9-1.1c1.5-0.1,2.2-0.8,2.4-2.2c0.6-4.1,1.1-8.3,1.7-12.4c0.2-1.4-0.6-2.7-2.3-2.7
	c-10.6,0.3-21.1,0.3-31.7,0.7C187.3,185.6,169.4,186.5,151.5,187.2L151.5,187.2L151.5,187.2z"/>
</svg>
