<?xml version="1.0" encoding="utf-8"?>
<!-- Generator: Adobe Illustrator 28.1.0, SVG Export Plug-In . SVG Version: 6.00 Build 0)  -->
<svg version="1.1" id="_레이어_1" xmlns="http://www.w3.org/2000/svg" xmlns:xlink="http://www.w3.org/1999/xlink" x="0px"
	 y="0px" viewBox="0 0 500 500" style="enable-background:new 0 0 500 500;" xml:space="preserve">
<style type="text/css">
	.st0{fill:#FFFFFF;}
</style>
<path class="st0" d="M363.2,187.7v182.7c0,9.6-5.2,18.6-13.5,23.7l-80.5,50.4c-11.8,7.3-26.6,7.3-38.4,0l-80.7-50.4
	c-8.3-5.2-13.3-14.1-13.3-23.7v-39l48.8-18.9v39.8l64.4,40.3l64.2-40.2V206.7L363.2,187.7L363.2,187.7z M363.2,118.8l-226.4,87.6
	v112.9l48.8-18.9v-56.1l177.6-68.7V118.8L363.2,118.8z M363.2,50l-226.4,87.6v56.8l226.4-87.6V50z"/>
</svg>
