<?xml version="1.0" encoding="utf-8"?>
<!-- Generator: Adobe Illustrator 28.1.0, SVG Export Plug-In . SVG Version: 6.00 Build 0)  -->
<svg version="1.1" id="_레이어_1" xmlns="http://www.w3.org/2000/svg" xmlns:xlink="http://www.w3.org/1999/xlink" x="0px"
	 y="0px" viewBox="0 0 500 500" style="enable-background:new 0 0 500 500;" xml:space="preserve">
<style type="text/css">
	.st0{fill:#FFFFFF;}
</style>
<polygon class="st0" points="400,112 400,100 388,100 302.2,185.8 292.5,176.1 368.7,100 344.6,100 280.5,164.1 280.5,164.1 
	270.7,154.5 325.2,100 301.2,100 258.6,142.5 258.6,142.5 215.8,100 100,100 100,217.2 142.1,259.1 100,301.2 100,325.2 154.2,271 
	163.9,280.7 100,344.6 100,368.7 176,292.6 185.7,302.3 100,388 100,400 112,400 197.8,314.2 197.8,314.2 207.5,323.9 131.4,400 
	155.4,400 219.5,335.9 229.3,345.5 174.8,400 198.8,400 241.3,357.5 284.2,400 400,400 400,282.8 357.8,240.9 357.8,240.9 
	400,198.8 400,174.8 345.8,229 336,219.3 400,155.4 400,131.4 324,207.4 314.3,197.7 314.3,197.7 "/>
</svg>
