<?xml version="1.0" encoding="utf-8"?>
<!-- Generator: Adobe Illustrator 28.1.0, SVG Export Plug-In . SVG Version: 6.00 Build 0)  -->
<svg version="1.1" id="_레이어_1" xmlns="http://www.w3.org/2000/svg" xmlns:xlink="http://www.w3.org/1999/xlink" x="0px"
	 y="0px" viewBox="0 0 500 500" style="enable-background:new 0 0 500 500;" xml:space="preserve">
<style type="text/css">
	.st0{fill:#FFFFFF;}
</style>
<path class="st0" d="M446.8,78.6c1.7,0,3.2,1.4,3.2,3.1v162.2c0,0.8-0.3,1.6-0.9,2.2L273.9,420.5c-2,1.9-5.4,0.6-5.4-2.2V184.8
	c0-1.7,1.4-3.1,3.1-3.1h87.9c0.8,0,1.6,0.3,2.2,0.9c1.2,1.2,1.2,3.2,0,4.4l-31.6,31.9c-0.6,0.6-0.9,1.4-0.9,2.2v51.3
	c0,0.9,0.3,1.7,0.9,2.3c1.2,1.2,3.2,1.2,4.4,0l53.7-53.9c0.6-0.6,0.9-1.4,0.9-2.2v-75.9c0-1.8-1.5-3.1-3.1-3.1H271.7
	c-1.8,0-3.1-1.5-3.1-3.1V81.8c0-1.7,1.4-3.1,3.1-3.1L446.8,78.6 M53,78.6c0,0-0.1,0-0.1,0c-1.7,0.1-3,1.5-2.9,3.1v162.1
	c0,0.8,0.3,1.6,0.9,2.2L226,420.5c2,1.9,5.4,0.6,5.4-2.2V184.8c0-1.7-1.5-3.1-3.1-3.1h-87.9c-0.8,0-1.6,0.3-2.2,0.9
	c-1.2,1.2-1.2,3.2,0,4.4l31.6,31.9c0.6,0.6,0.9,1.4,0.9,2.2v51.3c0,2.8-3.4,4.3-5.4,2.2l-53.7-53.9c-0.6-0.7-0.9-1.5-0.9-2.2v-75.9
	c0,0,0,0,0,0c0-1.7,1.4-3.1,3.1-3.1h114.4c1.8,0,3.1-1.5,3.1-3.1V81.8c0-1.8-1.5-3.1-3.1-3.1L53,78.6"/>
</svg>
