<?xml version="1.0" encoding="utf-8"?>
<!-- Generator: Adobe Illustrator 28.1.0, SVG Export Plug-In . SVG Version: 6.00 Build 0)  -->
<svg version="1.1" id="_레이어_1" xmlns="http://www.w3.org/2000/svg" xmlns:xlink="http://www.w3.org/1999/xlink" x="0px"
	 y="0px" viewBox="0 0 500 500" style="enable-background:new 0 0 500 500;" xml:space="preserve">
<style type="text/css">
	.st0{fill:#FFFFFF;}
</style>
<path class="st0" d="M475,302.9l-44.8,23.7c-11.5-14.3-23.3-27.6-34.4-38.8c-39-39.1-76.3-65.2-112.8-84.2
	c-15-7.8-29.8-14.3-44.1-19.6c-32-12-62-18.4-89.3-21c48.6,0.9,101.5,10.3,156.6,32.2C361.3,217.1,419,251.4,475,302.9z M93.4,241.8
	c39.2-16.3,78.6-22.8,116-20c9.5,0.7,18.9,2.3,28.1,4.2c45.5,9.2,86.9,32.3,119.8,65.5c-35-41.3-80.7-73.2-132.2-90.6
	c-49.1-16.6-105-20.3-171.1-4.2L93.4,241.8L93.4,241.8L93.4,241.8z M175.3,242.4c-36.3,2.4-65.2,13.8-87.8,28.5
	C55.1,292.1,35.5,320,25,337c5.7-7,11.1-13.8,17-19.4c31.6-30,66-41,98.4-42.5c53.7-2.4,102,21.8,123.6,32.5l27.1-45.2
	C245.8,245.5,207.5,240.3,175.3,242.4L175.3,242.4z"/>
</svg>
