<?xml version="1.0" encoding="utf-8"?>
<!-- Generator: Adobe Illustrator 28.1.0, SVG Export Plug-In . SVG Version: 6.00 Build 0)  -->
<svg version="1.1" id="_레이어_1" xmlns="http://www.w3.org/2000/svg" xmlns:xlink="http://www.w3.org/1999/xlink" x="0px"
	 y="0px" viewBox="0 0 500 500" style="enable-background:new 0 0 500 500;" xml:space="preserve">
<style type="text/css">
	.st0{fill:#FFFFFF;}
</style>
<path class="st0" d="M371.7,285.7c-30.4,28-59.3,27.5-81.6,27.5l58.1,77.8l101.7-0.1L371.7,285.7L371.7,285.7z M364.8,276.5
	L364.8,276.5c8.8-9.2,29.9-33.6,29.9-67.8c1.8-50-38-95.7-88.1-99.2L73.2,109l54.8,74.2l-12.4,37.3L50,220l53.3,38.9L83.1,321
	l52.7-38.2l0.8,107.5l-0.1,0.4l-0.1,0.4h88.6v-88.1c19.1-0.1,57.5,0.1,57.5,0.1C311.1,303,330.5,304.8,364.8,276.5L364.8,276.5z
	 M168.5,292.1l-32.4-23.4L103.9,292l12.3-37.8L84,230.4l39.8,0l12.4-37.8l12.4,37.8l39.6,0.5l-31.9,23.2L168.5,292.1L168.5,292.1z
	 M156.7,220.4l-9.3-28.4H296c9.9,0,15.7,7,15.7,14.5c0,7.5-5.1,13.8-15.8,14L156.7,220.4z"/>
</svg>
