<?xml version="1.0" encoding="utf-8"?>
<!-- Generator: Adobe Illustrator 28.1.0, SVG Export Plug-In . SVG Version: 6.00 Build 0)  -->
<svg version="1.1" id="_레이어_1" xmlns="http://www.w3.org/2000/svg" xmlns:xlink="http://www.w3.org/1999/xlink" x="0px"
	 y="0px" viewBox="0 0 500 500" style="enable-background:new 0 0 500 500;" xml:space="preserve">
<style type="text/css">
	.st0{fill:#FFFFFF;}
</style>
<path class="st0" d="M205.6,354.1l0,10.7l12.3,0v-10.7L205.6,354.1L205.6,354.1z M205.6,354.1l0,10.7l12.3,0v-10.7L205.6,354.1
	L205.6,354.1z M205.6,354.1l0,10.7l12.3,0v-10.7L205.6,354.1L205.6,354.1z M205.6,354.1l0,10.7l12.3,0v-10.7L205.6,354.1
	L205.6,354.1z M398.9,209.8l-0.2,0l-98.6-0.2l-26.3,67.3l-47.5-121.8L205,209.9l-103.9,0v0l0,0.1l0.3,64.5
	c-0.2,15,6.5,47.5,19.6,71.5c4,7.3,16.1,27.4,37.2,46.3c5.3,4.7,12,10.4,20.2,15.8c18.3,11.9,46.2,27.2,71.4,41.9
	c15-8.1,16.6-10,42.7-24.8c19.4-11,35.4-20.1,52.9-36.5c8.2-7.7,12.1-12.4,17.4-19c18.9-23.4,33.3-56.5,35.4-92.9
	C399.5,258.5,398.6,239.2,398.9,209.8L398.9,209.8z M181.5,358.3l0.1,3.5l-15.8,0.1l0.1,6.2h-3.5l-0.1-17.4h19.3l-0.1,3.4l-15.6,0.1
	v4.2L181.5,358.3z M177,329.3v-11l29.9,0.1c0.1-1.3-0.4-3.6-3.2-3.6l-30.2,0.1l-0.2,28.9l-10.9,0.1l0.1-40.2l41.6,0.1
	c7.8,0,14,8.2,14,13.2l-0.1,12.4l-20.5,0.1l21.7,14.2l-20,0.1C199.2,343.8,177,329.3,177,329.3z M221.3,368.1l-19.1,0.1l-0.1-17.7
	l19.2,0L221.3,368.1z M256.8,368.2l-9-7.7l0-3.2l9.8-0.1c0-1.6-0.9-3.2-2.8-3.2l-9.6,0.1l0,14.1l-3.3,0l0-17.6h13.7
	c2,0,5.5,2.9,5.5,5.7l0,4.3l-7.6,0.1l8.6,7.5L256.8,368.2z M277.7,318.2v10.9l-42.1,0.2l0.1,3.5h42l0.1,10.9h-53.2l-0.2-40.3
	l53.3,0.1l-0.1,11.1l-42,0.1l-0.1,3.4L277.7,318.2L277.7,318.2z M300.9,353.9l-15.8,0l-0.1,10.7l15.8,0l0.1,3.3h-19.1v-17.4h19.2
	V353.9L300.9,353.9z M325,364.7l15.8,0.1l-0.1,3.2h-19.2l0.1-17.5l19.2,0.1v3.4h-15.8l-0.1,3.6l15.9,0.1l-0.1,3.4h-15.8L325,364.7
	L325,364.7z M333.2,343.7l-48.7,0l-0.2-25.5l11.3,0.1l0,14.4h30l3.5-8.9l-3.6-9.1l-41.1-0.1v-11l48.9,0l7.6,20.1L333.2,343.7
	L333.2,343.7z M217.9,364.8v-10.7l-12.3,0l0,10.7L217.9,364.8L217.9,364.8z M205.6,354.1l0,10.7l12.3,0v-10.7L205.6,354.1
	L205.6,354.1z M205.6,354.1l0,10.7l12.3,0v-10.7L205.6,354.1L205.6,354.1z M205.6,354.1l0,10.7l12.3,0v-10.7L205.6,354.1
	L205.6,354.1z M205.6,354.1l0,10.7l12.3,0v-10.7L205.6,354.1L205.6,354.1z M398.9,90.6l-0.2,99.2l-112,0.3L273.8,223l-47.6-121.4
	l-34.8,88.9l-90.3-0.2v0H101l0.1-99.5c25.8,0.7,77.5-5,115.6-20.7c13.2-5.5,24.8-11.9,33.1-20c5.6,6.4,19.2,13.7,30.4,18.6
	c25.2,11,53.5,17,78.4,19.9C373.9,90.3,387.8,91.1,398.9,90.6z"/>
</svg>
