<?xml version="1.0" encoding="utf-8"?>
<!-- Generator: Adobe Illustrator 28.1.0, SVG Export Plug-In . SVG Version: 6.00 Build 0)  -->
<svg version="1.1" id="_레이어_1" xmlns="http://www.w3.org/2000/svg" xmlns:xlink="http://www.w3.org/1999/xlink" x="0px"
	 y="0px" viewBox="0 0 500 500" style="enable-background:new 0 0 500 500;" xml:space="preserve">
<style type="text/css">
	.st0{fill:#FFFFFF;}
</style>
<path class="st0" d="M50,171.2h335.1c-0.5,0.8-1,1.5-1.6,2.2c-0.2,0.2-0.4,0.5-0.6,0.7l-0.3,0.3c-0.4,0.5-0.8,0.9-1.1,1.4
	c-1.9,2.4-3.9,4.6-6.1,6.7c-0.4,0.4-0.8,0.8-1.3,1.3c-1.3,1.3-2.6,2.6-4.1,3.7c-0.5,0.4-0.9,0.8-1.4,1.2c-0.9,0.8-1.8,1.5-2.7,2.2
	l-0.5,0.4c-2.6,1.9-5.2,3.7-8,5.3l-0.5,0.3c-7.2,4.1-15.2,7.2-23.5,8.5c-1.7,0.3-2.5,0.9-3.5,2.2c-0.5,0.8-1,1.5-1.5,2.3
	c-0.9,1.4-1.8,2.7-2.8,4c-0.6,0.8-1.1,1.5-1.6,2.3l-0.7,1l-0.3,0.5c-0.5,0.7-0.9,1.4-1.4,2.1c-0.3,0.4-0.5,0.8-0.8,1.2
	c-0.5,0.8-1.1,1.6-1.6,2.3c-0.4,0.6-0.9,1.3-1.3,1.9c-1,1.5-2.1,3.1-3.2,4.6c-1.2,1.7-2.3,3.3-3.4,5c-1,1.5-2.1,3-3.1,4.5
	c-1.1,1.6-2.3,3.3-3.4,5c-1.3,1.9-2.6,3.9-4,5.8c-1.3,1.9-2.6,3.7-3.9,5.6c-1.3,1.9-2.6,3.9-4,5.8c-1.3,1.9-2.6,3.7-3.9,5.6
	c-1.3,1.9-2.6,3.9-4,5.8c-1.3,1.9-2.6,3.7-3.9,5.6c-1.3,1.9-2.6,3.9-4,5.8c-1.3,1.9-2.6,3.7-3.9,5.6c-1.3,1.9-2.6,3.8-4,5.7
	c-1.3,1.9-2.6,3.8-3.9,5.6c-0.9,1.3-1.7,2.5-2.6,3.8c-0.2,0.4-0.5,0.7-0.8,1.1c-1.1,1.5-2.1,3.1-3.2,4.6c-1.4,2-2.8,4.1-4.2,6.2
	c-1.5,2.1-2.9,4.3-4.4,6.4c-1,1.4-2,2.9-3,4.3l-0.3,0.4l-0.3,0.4c-0.4,0.6-0.6,0.7-1.3,0.8c-1.2,0-2.2-0.8-3.1-1.5l-0.6-0.4
	c-4.8-3.3-9.4-7-12.8-11.7l-0.3-0.4c-2.8-3.9-4.4-8.3-3.8-13.2c0.7-4,3.2-7.3,5.4-10.5l0.6-0.9c0.4-0.6,0.9-1.3,1.3-1.9
	c0.4-0.6,0.9-1.3,1.3-1.9l0.5-0.8l0.3-0.4l18.1-26.3l0.3-0.4c0.2-0.3,0.4-0.5,0.5-0.8c0.4-0.6,0.9-1.3,1.3-1.9
	c1-1.5,2.1-3.1,3.2-4.6c1.3-1.9,2.6-3.8,3.9-5.6c0.9-1.3,1.7-2.5,2.6-3.8c0.2-0.4,0.5-0.7,0.8-1.1c1.1-1.5,2.1-3.1,3.2-4.6
	c1.3-1.9,2.6-3.8,3.9-5.6c0.9-1.3,1.7-2.5,2.6-3.8c0.2-0.4,0.5-0.7,0.8-1.1c1.1-1.5,2.1-3.1,3.2-4.6c1.3-1.9,2.6-3.8,3.9-5.6
	c0.9-1.3,1.7-2.5,2.6-3.8l0.8-1.2l0.3-0.4c0.2-0.2,0.3-0.5,0.5-0.8c0.7-1,1.3-1.9,2-2.9l0.6-0.9h-0.5c-17.2,0-34.4,0-51.6,0h-0.8
	c-8.6,0-17.2,0-25.8,0c-8.7,0-17.4,0-26.1,0c-10.8,0-21.5,0-32.3,0c-4.1,0-8.1,0-12.2,0c-4.1,0-8.2,0-12.3,0c-2.4,0-4.8,0-7.3,0
	c-1.6,0-3.2,0-4.9,0c-0.9,0-1.8,0-2.8,0c-18.6,0-35.9-6.7-49.6-19.4c-0.4-0.4-0.8-0.7-1.2-1.1c-1-0.8-1.8-1.7-2.7-2.6
	c-0.3-0.3-0.6-0.6-0.8-0.8c-1-1-2-2.1-3-3.2c-0.2-0.2-0.4-0.5-0.6-0.7c-1.3-1.4-2.5-2.9-3.6-4.4c-0.3-0.4-0.6-0.8-0.9-1.1
	C50.1,171.9,50,171.5,50,171.2 M410.7,171.1h0.5c0.6,0,1.1,0,1.7,0h1.2c1.1,0,2.2,0,3.3,0c1.1,0,2.3,0,3.4,0c2.2,0,4.3,0,6.5,0
	c2.5,0,4.9,0,7.4,0c5.1,0,10.2,0,15.2,0c-0.1,0.6-0.2,1.1-0.6,1.7l-0.3,0.4l-0.3,0.4l-0.6,0.8l-0.3,0.4c-0.5,0.7-0.9,1.3-1.4,2
	l-0.5,0.8c-0.3,0.5-0.7,1-1,1.5c-1,1.5-2.1,3.1-3.2,4.6c-1.2,1.7-2.3,3.3-3.4,5c-1,1.5-2.1,3-3.1,4.5c-1.1,1.6-2.3,3.3-3.4,4.9
	c-0.7,1.1-1.5,2.1-2.2,3.2c-0.3,0.4-0.5,0.7-0.8,1.1c-1,1.5-2.1,3.1-3.2,4.6c-1.2,1.7-2.3,3.3-3.4,5c-1,1.5-2,3-3.1,4.4
	c-0.9,1.3-1.8,2.6-2.6,3.8c-1.1,1.7-2.3,3.4-3.5,5c-1.1,1.6-2.3,3.3-3.4,4.9c-0.7,1.1-1.5,2.1-2.2,3.2c-0.3,0.4-0.5,0.7-0.8,1.1
	c-1,1.5-2.1,3.1-3.2,4.6c-1.2,1.7-2.3,3.3-3.4,5c-1,1.5-2,3-3.1,4.4c-0.9,1.3-1.8,2.6-2.6,3.8c-1,1.5-2,2.9-3,4.4
	c-1.4,2-2.8,4.1-4.2,6.1c-1.3,1.9-2.7,3.9-4,5.8c-1.2,1.7-2.3,3.3-3.4,5c-0.9,1.3-1.8,2.6-2.7,3.9c-1.4,2-2.8,4.1-4.2,6.1
	c-1.3,1.9-2.7,3.9-4,5.8c-1.4,2-2.8,4.1-4.2,6.2c-1.3,1.9-2.7,3.9-4,5.8c-1.2,1.7-2.3,3.3-3.4,5c-0.9,1.3-1.8,2.6-2.7,3.9
	c-1.4,2-2.8,4.1-4.2,6.1c-1.5,2.1-2.9,4.3-4.4,6.4c-1,1.4-2,2.9-3,4.3l-0.3,0.4l-0.3,0.4c-0.4,0.5-0.5,0.7-1.2,0.8
	c-4.1-0.2-9.7-6.2-12.6-8.9l-0.5-0.5c-4-3.9-7.6-9.1-7.8-14.8c-0.1-5.4,2.7-9.6,5.8-13.9c0.6-0.9,1.3-1.8,1.9-2.7l0.3-0.5l0.6-0.9
	c0.5-0.7,0.9-1.4,1.4-2l0.3-0.4l0.5-0.8c0.5-0.8,1.1-1.6,1.6-2.3c0.4-0.6,0.9-1.3,1.3-1.9c1-1.5,2.1-3.1,3.2-4.6
	c1.4-2,2.8-4.1,4.2-6.2c1.3-1.9,2.7-3.9,4-5.8c1.2-1.7,2.3-3.3,3.4-5c0.9-1.3,1.8-2.6,2.7-3.9c1.4-2,2.8-4.1,4.2-6.1
	c1.3-1.9,2.7-3.9,4-5.8c1.4-2,2.8-4.1,4.2-6.2c1.3-1.9,2.7-3.9,4-5.8c1.2-1.7,2.3-3.3,3.4-5c0.9-1.3,1.8-2.6,2.7-3.9
	c1.4-2,2.8-4.1,4.2-6.1c1.5-2.2,3-4.4,4.5-6.6l0.4-0.6l0.3-0.5c0.4-0.6,0.8-1.1,1.1-1.7l-27.6-0.2v-0.4l0.5-0.1
	c14.7-3.6,27.4-9.9,38.5-20.1l0.3-0.3c1.8-1.7,3.6-3.3,5.2-5.2c0.4-0.5,0.9-1,1.3-1.4c0.7-0.8,1.4-1.6,2.1-2.5l0.3-0.4l0.3-0.3
	c0.5-0.7,1.1-1.3,1.6-2l0.5-0.6C408.6,171.2,409.4,171,410.7,171.1 M109,213.9h164.3c-0.4,0.9-0.7,1.6-1.2,2.3l-0.4,0.5l-0.4,0.6
	l-0.4,0.6c-0.3,0.4-0.5,0.8-0.8,1.2c-0.4,0.6-0.8,1.1-1.2,1.7c-1.4,2-2.7,4-4.1,5.9c-0.3,0.5-0.6,0.9-1,1.4
	c-0.2,0.2-0.3,0.5-0.5,0.7l-0.4,0.6c-0.6,0.7-1.1,1.2-2,1.5c-0.3,0-0.6,0-0.9,0h-0.6h-0.6h-0.6c-0.7,0-1.4,0-2.2,0h-1.6
	c-1.3,0-2.6,0-3.8,0c-1.5,0-3.1,0-4.6,0c-3.7,0-7.4,0-11.1,0c-1.8,0-3.5,0-5.3,0c-7.5,0-15,0-22.5,0h-0.6c-6.1,0-12.2,0-18.3,0
	c-7.1,0-14.3,0-21.4,0h-0.5c-2.8,0-5.6,0-8.4,0c-2.8,0-5.6,0-8.4,0c-1.7,0-3.3,0-5,0c-1.1,0-2.2,0-3.4,0c-0.6,0-1.3,0-1.9,0
	c-3.2,0-6.4-0.1-9.5-1.2l-0.4-0.2c-4.3-1.5-8.4-3.9-12-6.8l-0.3-0.3c-2.6-2.1-4.9-4.4-6.9-7l-0.4-0.5C109.3,214.4,109,214,109,213.9
	 M141.4,239.4h114.5c-0.5,1.1-1.1,2.1-1.8,3l-0.6,0.8l-0.3,0.4c-0.5,0.7-0.9,1.3-1.4,2l-0.5,0.8l-0.3,0.4l-0.8,1.1l-0.5,0.7
	l-0.3,0.4c-0.5,0.7-1,1.5-1.5,2.2c-0.3,0.4-0.6,0.9-0.9,1.3c-0.2,0.3-0.4,0.6-0.7,1l-0.4,0.6l-0.4,0.5c-0.7,0.9-1.3,1.5-2.3,1.9
	c-0.4,0-0.9,0-1.4,0h-0.4c-0.5,0-1,0-1.5,0c-0.4,0-0.7,0-1.1,0c-1,0-1.9,0-2.9,0c-1,0-2.1,0-3.1,0c-2,0-4,0-6,0c-1.6,0-3.3,0-4.9,0
	c-5.3,0-10.5,0-15.8,0c-2.6,0-5.1,0-7.7,0h-0.7c-4.8,0-9.5,0-14.3,0c-1.3,0-2.7,0-4,0c-1.6,0-3.3,0-4.9,0c-0.8,0-1.7,0-2.5,0
	c-9.3,0-17.4-3.3-24.3-9.7c-0.4-0.4-0.8-0.7-1.2-1c-1.6-1.4-3-3.1-4.4-4.8l-0.3-0.4C141.6,240.1,141.4,239.7,141.4,239.4
	 M173.9,264.9h64.5c-0.7,1.3-1.3,2.2-1.6,2.6l-0.3,0.4l-0.3,0.5c-0.4,0.5-0.7,1-1.1,1.6c-0.6,0.9-1.2,1.8-1.9,2.7l-0.4,0.5
	c-0.2,0.4-0.5,0.7-0.7,1.1c-1.8,2.7-3.2,4.6-4,5.8l-0.2,0.3c-0.6,0.9-1.2,1.4-1.8,1.6c-0.3,0-0.7,0-1,0h-0.6h-0.7H223
	c-0.7,0-1.3,0-2,0h-1.2c-1.5,0-2.9,0-4.4,0c-1.4,0-2.7,0-4,0c-1.2,0-2.3,0-3.5,0c-0.7,0-1.4,0-2.1,0c-9.2,0-17.2-2.6-24.2-8.7
	l-0.4-0.4c-2.3-2-4.5-4.2-6.4-6.7l-0.4-0.5C174.1,265.6,173.9,265.2,173.9,264.9"/>
</svg>
